<svg id="svg" version="1.1" xmlns="http://www.w3.org/2000/svg" xmlns:xlink="http://www.w3.org/1999/xlink" width="400" height="225" viewBox="0, 0, 400,225"><g id="svgg"><path id="path0" d="M237.083 46.030 C 236.453 46.121,235.436 46.263,234.823 46.344 C 234.209 46.425,233.342 46.621,232.895 46.778 C 232.449 46.936,232.083 47.020,232.083 46.965 C 232.083 46.909,231.802 47.010,231.458 47.188 C 231.115 47.365,230.833 47.467,230.833 47.413 C 230.833 47.297,229.554 47.845,226.979 49.065 C 224.970 50.018,221.543 52.578,220.104 54.204 C 218.435 56.089,217.502 57.268,217.262 57.795 C 217.127 58.091,216.938 58.333,216.842 58.333 C 216.745 58.333,216.667 58.474,216.667 58.646 C 216.667 58.818,216.593 58.958,216.502 58.958 C 216.412 58.958,216.018 59.497,215.626 60.156 C 215.234 60.815,214.357 62.245,213.676 63.333 C 212.995 64.422,212.436 65.430,212.434 65.573 C 212.432 65.716,212.352 65.833,212.257 65.833 C 212.161 65.833,212.083 65.926,212.083 66.039 C 212.083 66.536,209.471 69.854,207.969 71.266 C 205.725 73.375,203.015 74.671,200.401 74.887 C 200.105 74.911,199.772 74.988,199.660 75.057 C 198.441 75.810,190.888 73.523,189.104 71.862 C 188.866 71.640,188.548 71.458,188.398 71.458 C 188.248 71.458,188.125 71.365,188.125 71.250 C 188.125 71.135,188.007 71.042,187.863 71.042 C 187.718 71.042,187.481 70.851,187.335 70.617 C 187.189 70.383,186.982 70.246,186.875 70.313 C 186.768 70.379,186.561 70.242,186.415 70.008 C 186.269 69.774,186.084 69.583,186.005 69.583 C 185.752 69.583,184.842 68.712,178.020 61.935 C 171.508 55.466,170.575 54.583,170.256 54.583 C 170.170 54.583,169.983 54.396,169.840 54.167 C 169.697 53.938,169.483 53.750,169.364 53.750 C 169.246 53.750,168.896 53.516,168.587 53.229 C 168.278 52.943,167.912 52.708,167.773 52.708 C 167.634 52.708,167.446 52.578,167.354 52.419 C 166.663 51.218,159.423 47.961,155.729 47.188 C 154.101 46.848,147.999 46.782,146.830 47.092 C 143.987 47.847,139.517 51.087,138.986 52.778 C 138.945 52.912,138.800 53.115,138.666 53.229 C 137.328 54.370,133.054 64.084,132.815 66.527 C 132.779 66.890,132.502 68.212,132.199 69.465 C 131.610 71.898,130.989 75.023,130.623 77.396 C 130.499 78.198,130.360 79.089,130.313 79.375 C 130.266 79.661,130.172 80.740,130.104 81.771 C 130.036 82.802,129.941 83.786,129.893 83.958 C 128.745 88.060,128.189 125.008,129.159 132.708 C 129.443 134.960,130.360 139.505,130.634 140.018 C 130.735 140.206,130.873 140.677,130.941 141.065 C 131.009 141.453,131.153 141.860,131.262 141.969 C 131.370 142.078,131.458 142.382,131.458 142.646 C 131.458 142.909,131.552 143.125,131.667 143.125 C 131.781 143.125,131.860 143.195,131.842 143.281 C 131.824 143.367,131.885 143.625,131.979 143.854 C 132.073 144.083,132.315 144.702,132.517 145.228 C 133.037 146.580,134.816 150.292,135.004 150.417 C 135.091 150.474,135.315 150.849,135.503 151.250 C 136.047 152.411,136.803 153.596,137.414 154.246 C 137.539 154.378,137.680 154.589,137.727 154.714 C 137.841 155.018,138.906 156.357,139.719 157.220 C 140.080 157.603,140.329 157.917,140.272 157.917 C 139.887 157.917,146.449 164.004,147.917 165.008 C 148.318 165.283,148.770 165.627,148.921 165.774 C 149.073 165.921,149.266 166.042,149.351 166.042 C 149.435 166.042,149.687 166.208,149.909 166.412 C 150.650 167.092,151.608 167.697,151.737 167.568 C 151.808 167.498,151.924 167.594,151.996 167.781 C 152.068 167.969,152.211 168.071,152.313 168.007 C 152.416 167.944,152.500 167.997,152.500 168.125 C 152.500 168.253,152.586 168.305,152.691 168.240 C 152.795 168.175,152.913 168.195,152.951 168.284 C 153.013 168.427,158.374 171.127,160.521 172.096 C 162.589 173.030,168.096 174.870,168.698 174.828 C 168.956 174.811,169.167 174.895,169.167 175.015 C 169.167 175.135,169.248 175.183,169.346 175.122 C 169.445 175.061,170.172 175.187,170.961 175.403 C 172.871 175.925,176.950 176.795,179.271 177.174 C 180.302 177.343,181.474 177.536,181.875 177.602 C 182.276 177.668,183.823 177.807,185.313 177.911 C 186.802 178.015,189.286 178.205,190.833 178.335 C 193.803 178.583,203.191 178.663,205.833 178.462 C 206.693 178.397,208.755 178.289,210.417 178.222 C 212.078 178.156,213.614 178.049,213.831 177.986 C 214.047 177.922,214.563 177.840,214.977 177.803 C 216.322 177.683,222.595 176.871,222.917 176.776 C 223.089 176.724,223.698 176.626,224.271 176.557 C 224.844 176.487,225.476 176.384,225.675 176.327 C 225.875 176.270,226.297 176.180,226.613 176.127 C 227.330 176.008,229.996 175.394,230.417 175.251 C 230.589 175.193,230.823 175.121,230.938 175.091 C 231.052 175.061,232.458 174.655,234.063 174.190 C 236.580 173.459,237.944 172.989,242.323 171.344 C 242.741 171.187,243.411 170.874,243.813 170.648 C 244.215 170.422,244.599 170.294,244.668 170.362 C 244.736 170.430,244.792 170.371,244.792 170.231 C 244.792 170.090,244.885 170.033,245.000 170.104 C 245.115 170.175,245.208 170.128,245.208 170.000 C 245.208 169.872,245.291 169.818,245.392 169.881 C 245.493 169.943,245.798 169.826,246.069 169.621 C 246.341 169.416,247.594 168.655,248.854 167.929 C 250.946 166.725,253.987 164.711,254.634 164.102 C 254.778 163.965,255.365 163.482,255.938 163.027 C 257.460 161.817,260.345 158.869,260.724 158.134 C 260.905 157.785,261.147 157.500,261.262 157.500 C 261.377 157.500,261.533 157.336,261.609 157.135 C 261.684 156.935,262.101 156.320,262.535 155.769 C 264.996 152.641,268.724 145.174,269.045 142.725 C 269.084 142.430,269.355 141.250,269.646 140.104 C 270.897 135.188,271.295 131.763,271.280 126.042 C 271.263 119.629,271.021 101.017,270.934 99.479 C 270.726 95.776,270.183 88.193,270.010 86.563 C 269.900 85.531,269.748 83.988,269.671 83.133 C 269.595 82.279,269.456 81.435,269.362 81.258 C 269.269 81.082,269.038 79.850,268.849 78.522 C 268.567 76.533,268.031 73.796,267.180 70.000 C 266.895 68.725,266.612 67.796,266.450 67.598 C 266.354 67.480,266.227 67.151,266.168 66.869 C 266.110 66.586,265.766 65.604,265.405 64.688 C 264.517 62.436,264.495 62.383,263.765 60.804 C 263.413 60.042,263.125 59.323,263.125 59.204 C 263.125 59.085,263.004 58.864,262.856 58.713 C 262.709 58.561,262.379 58.034,262.124 57.540 C 261.870 57.047,261.570 56.531,261.459 56.394 C 261.349 56.258,260.702 55.443,260.023 54.583 C 256.182 49.724,251.292 46.662,246.495 46.114 C 244.894 45.930,238.179 45.871,237.083 46.030 M174.662 90.827 C 185.217 93.526,188.817 106.414,181.030 113.623 C 171.981 122.001,156.857 115.954,156.878 103.967 C 156.893 95.061,165.720 88.540,174.662 90.827 M231.537 90.827 C 242.092 93.526,245.692 106.414,237.905 113.623 C 228.856 122.001,213.732 115.954,213.753 103.967 C 213.768 95.061,222.595 88.540,231.537 90.827 " stroke="none" fill="#fff" fill-rule="evenodd"></path></g></svg>