<svg id="svg" version="1.1" xmlns="http://www.w3.org/2000/svg" xmlns:xlink="http://www.w3.org/1999/xlink" width="400" height="374.869109947644" viewBox="0, 0, 400,374.869109947644"><g id="svgg"><path id="path0" d="M309.466 10.122 C 308.435 10.286,304.977 10.544,301.781 10.696 C 298.585 10.848,295.786 11.117,295.560 11.294 C 295.335 11.471,294.154 11.779,292.936 11.978 C 289.326 12.570,287.412 12.992,286.292 13.444 C 285.712 13.679,284.763 13.871,284.183 13.871 C 283.603 13.871,282.918 14.124,282.662 14.433 C 282.405 14.742,281.697 14.995,281.089 14.995 C 280.481 14.995,279.731 15.248,279.422 15.558 C 279.112 15.867,278.573 16.120,278.223 16.120 C 277.873 16.120,276.243 16.795,274.602 17.619 C 272.960 18.444,271.417 19.119,271.172 19.119 C 270.928 19.119,270.672 19.254,270.603 19.419 C 270.534 19.584,269.133 20.531,267.489 21.524 C 265.845 22.516,264.327 23.529,264.115 23.774 C 263.903 24.020,262.791 24.925,261.643 25.786 C 259.116 27.682,252.671 33.919,252.671 34.470 C 252.671 34.687,252.531 34.864,252.360 34.864 C 252.188 34.864,251.531 35.581,250.898 36.457 C 250.266 37.334,249.374 38.472,248.916 38.988 C 248.458 39.503,247.656 40.596,247.132 41.416 C 246.609 42.236,245.954 43.134,245.677 43.411 C 245.400 43.688,245.173 44.084,245.173 44.290 C 245.173 44.496,244.963 44.900,244.705 45.187 C 243.820 46.174,243.448 46.674,243.182 47.235 C 243.036 47.545,242.578 48.304,242.166 48.922 C 241.753 49.541,241.314 50.342,241.189 50.703 C 241.064 51.064,240.825 51.359,240.656 51.359 C 240.488 51.359,240.235 51.739,240.094 52.202 C 239.953 52.666,239.466 53.552,239.010 54.171 C 238.555 54.789,238.067 55.548,237.925 55.858 C 237.783 56.167,237.330 56.926,236.917 57.545 C 236.505 58.163,236.065 58.964,235.941 59.325 C 235.816 59.686,235.565 59.981,235.383 59.981 C 235.201 59.981,235.052 60.222,235.052 60.517 C 235.052 60.811,234.841 61.282,234.583 61.564 C 233.950 62.254,233.252 63.366,232.811 64.386 C 232.610 64.850,232.314 65.230,232.153 65.230 C 231.992 65.230,231.635 65.739,231.359 66.363 C 231.083 66.986,230.663 67.704,230.424 67.958 C 230.186 68.213,229.337 69.390,228.539 70.574 C 227.741 71.758,226.940 72.727,226.758 72.727 C 226.577 72.727,226.429 72.944,226.429 73.209 C 226.429 73.742,219.373 80.975,218.852 80.975 C 218.672 80.975,218.074 81.392,217.524 81.902 C 216.352 82.989,209.958 86.218,208.944 86.235 C 208.561 86.242,207.920 86.495,207.520 86.797 C 207.117 87.102,205.997 87.348,205.011 87.348 C 204.032 87.348,203.137 87.500,203.021 87.686 C 202.683 88.234,195.355 88.545,192.502 88.133 C 186.385 87.250,185.063 86.994,184.688 86.619 C 184.470 86.401,183.852 86.223,183.314 86.223 C 182.776 86.223,182.009 85.975,181.609 85.673 C 181.208 85.370,180.641 85.117,180.348 85.110 C 179.655 85.095,174.920 82.805,174.758 82.406 C 174.689 82.237,174.322 82.099,173.941 82.099 C 173.561 82.099,173.019 81.888,172.738 81.631 C 172.139 81.082,170.993 80.328,170.197 79.960 C 169.888 79.817,169.466 79.561,169.260 79.390 C 169.053 79.219,167.451 78.049,165.698 76.790 C 163.946 75.531,162.241 74.229,161.909 73.895 C 161.578 73.562,160.060 72.206,158.535 70.882 C 155.834 68.536,140.229 53.041,137.553 50.047 C 136.815 49.222,133.968 46.439,131.226 43.861 C 128.484 41.284,125.220 38.188,123.972 36.982 C 122.725 35.776,121.101 34.393,120.365 33.908 C 119.628 33.423,118.182 32.259,117.151 31.322 C 116.120 30.384,114.981 29.521,114.620 29.404 C 114.260 29.286,113.964 29.033,113.964 28.841 C 113.964 28.648,113.725 28.491,113.433 28.491 C 113.141 28.491,112.846 28.347,112.777 28.170 C 112.623 27.774,107.661 24.367,107.239 24.367 C 107.071 24.367,106.723 24.114,106.467 23.805 C 106.210 23.496,105.697 23.243,105.327 23.243 C 104.957 23.243,104.599 23.095,104.530 22.916 C 104.371 22.500,100.144 20.244,99.525 20.244 C 99.270 20.244,98.851 19.991,98.594 19.681 C 98.338 19.372,97.747 19.119,97.282 19.119 C 96.817 19.119,96.227 18.866,95.970 18.557 C 95.713 18.247,95.206 17.994,94.842 17.994 C 94.479 17.994,93.698 17.742,93.108 17.434 C 92.517 17.126,91.748 16.873,91.400 16.872 C 91.051 16.871,90.674 16.720,90.561 16.538 C 90.448 16.356,89.595 16.092,88.664 15.953 C 87.734 15.813,86.973 15.541,86.973 15.347 C 86.973 15.154,86.340 14.989,85.567 14.982 C 84.794 14.975,83.739 14.728,83.224 14.433 C 82.709 14.138,81.443 13.889,80.412 13.880 C 79.381 13.870,77.610 13.613,76.476 13.308 C 73.529 12.517,60.988 12.519,59.470 13.311 C 58.879 13.619,58.084 13.871,57.702 13.871 C 56.615 13.871,52.645 15.659,49.303 17.654 C 45.384 19.993,38.186 26.925,37.021 29.480 C 36.800 29.967,36.477 30.366,36.303 30.366 C 36.130 30.366,35.989 30.610,35.989 30.909 C 35.989 31.208,35.765 31.588,35.492 31.753 C 35.219 31.918,34.879 32.306,34.737 32.615 C 34.595 32.924,33.969 34.021,33.345 35.052 C 32.721 36.082,32.032 37.390,31.813 37.957 C 31.595 38.524,31.265 38.988,31.079 38.988 C 30.893 38.988,30.740 39.415,30.740 39.937 C 30.740 40.459,30.487 40.983,30.178 41.102 C 29.869 41.220,29.616 41.623,29.616 41.997 C 29.616 42.370,29.377 43.153,29.086 43.737 C 28.491 44.928,27.717 46.695,26.814 48.922 C 26.479 49.747,26.045 50.715,25.849 51.073 C 25.653 51.431,25.492 52.079,25.492 52.514 C 25.492 52.949,25.262 53.753,24.982 54.300 C 24.334 55.563,23.632 57.547,23.236 59.231 C 23.066 59.953,22.648 61.471,22.306 62.605 C 21.965 63.739,21.531 65.426,21.342 66.354 C 21.153 67.282,20.840 68.379,20.647 68.791 C 20.453 69.203,20.222 70.047,20.134 70.665 C 20.045 71.284,19.790 72.549,19.568 73.477 C 18.154 79.373,16.795 86.838,16.122 92.409 C 15.923 94.058,15.596 95.998,15.396 96.720 C 15.196 97.441,14.951 99.468,14.851 101.223 C 14.751 102.978,14.490 104.887,14.270 105.465 C 14.050 106.043,13.871 107.813,13.871 109.399 C 13.871 110.985,13.676 112.872,13.438 113.592 C 13.020 114.860,12.900 116.457,12.018 132.521 C 11.791 136.645,11.399 140.525,11.147 141.143 C 10.503 142.720,10.532 232.580,11.177 236.176 C 11.696 239.066,12.309 243.595,12.674 247.235 C 12.819 248.679,13.098 250.112,13.295 250.420 C 13.493 250.728,13.775 251.741,13.922 252.669 C 14.246 254.704,14.969 257.504,15.389 258.342 C 15.556 258.677,15.812 259.605,15.956 260.404 C 16.100 261.202,16.345 262.024,16.501 262.231 C 16.657 262.437,16.903 263.322,17.047 264.197 C 17.192 265.072,17.464 265.883,17.652 266.000 C 17.840 266.116,17.994 266.687,17.994 267.268 C 17.994 267.849,18.247 268.534,18.557 268.791 C 18.866 269.048,19.119 269.627,19.119 270.077 C 19.119 270.528,19.367 271.224,19.669 271.625 C 19.972 272.025,20.225 272.603,20.232 272.909 C 20.242 273.407,21.199 275.625,22.714 278.662 C 23.005 279.246,23.243 279.942,23.243 280.209 C 23.243 280.477,23.496 280.905,23.805 281.162 C 24.114 281.419,24.367 282.012,24.367 282.480 C 24.367 282.948,24.620 283.428,24.930 283.547 C 25.239 283.666,25.492 284.096,25.492 284.502 C 25.492 284.909,25.643 285.335,25.828 285.449 C 26.013 285.564,26.546 286.375,27.012 287.252 C 28.969 290.934,29.294 291.466,32.054 295.525 C 33.290 297.342,34.470 299.103,34.677 299.437 C 34.883 299.772,35.393 300.394,35.809 300.819 C 36.226 301.245,37.009 302.279,37.549 303.117 C 38.090 303.955,39.018 305.136,39.612 305.741 C 40.206 306.346,41.363 307.682,42.183 308.710 C 43.897 310.858,51.122 318.072,53.586 320.095 C 54.501 320.847,55.682 321.867,56.210 322.361 C 58.609 324.608,73.057 334.770,73.853 334.770 C 74.008 334.770,74.345 335.023,74.602 335.333 C 74.858 335.642,75.385 335.895,75.772 335.895 C 76.159 335.895,76.476 336.029,76.476 336.192 C 76.476 336.355,77.024 336.749,77.694 337.067 C 78.365 337.385,81.359 338.872,84.349 340.372 C 87.338 341.871,90.335 343.329,91.008 343.610 C 92.792 344.356,94.687 345.171,96.069 345.787 C 96.736 346.084,98.547 346.772,100.094 347.317 C 101.640 347.861,103.411 348.524,104.030 348.790 C 105.800 349.552,107.695 350.201,108.716 350.394 C 109.231 350.492,109.991 350.713,110.403 350.885 C 111.434 351.316,114.645 352.262,116.116 352.569 C 116.783 352.708,117.426 352.978,117.544 353.168 C 117.661 353.359,118.390 353.515,119.163 353.515 C 119.936 353.515,120.896 353.762,121.297 354.065 C 121.697 354.368,122.625 354.621,123.359 354.627 C 124.092 354.634,125.020 354.887,125.420 355.190 C 125.821 355.492,126.939 355.745,127.907 355.752 C 128.874 355.758,129.757 355.913,129.870 356.094 C 129.982 356.276,131.171 356.543,132.512 356.686 C 133.853 356.830,135.046 357.103,135.163 357.293 C 135.281 357.483,136.084 357.642,136.948 357.647 C 137.812 357.652,139.194 357.837,140.019 358.058 C 140.843 358.279,142.844 358.597,144.465 358.765 C 146.086 358.933,147.596 359.254,147.820 359.479 C 148.045 359.704,149.418 359.888,150.872 359.888 C 152.325 359.888,154.837 360.141,156.453 360.450 C 158.069 360.759,160.515 361.016,161.889 361.020 C 163.262 361.024,165.483 361.204,166.823 361.420 C 176.101 362.917,228.490 362.952,231.184 361.464 C 231.635 361.216,233.322 361.009,234.933 361.005 C 236.545 361.002,239.466 360.752,241.425 360.450 C 243.383 360.148,245.883 359.898,246.979 359.894 C 248.075 359.891,249.314 359.704,249.732 359.480 C 250.150 359.257,252.121 358.981,254.112 358.868 C 256.103 358.755,257.913 358.521,258.133 358.348 C 258.354 358.174,259.873 357.862,261.507 357.654 C 265.465 357.149,268.001 356.666,269.284 356.171 C 269.864 355.947,271.130 355.758,272.096 355.752 C 273.062 355.745,274.179 355.492,274.580 355.190 C 275.004 354.869,276.124 354.639,277.266 354.639 C 278.344 354.639,279.285 354.460,279.358 354.240 C 279.431 354.021,280.247 353.752,281.170 353.643 C 282.094 353.534,283.381 353.208,284.030 352.918 C 284.680 352.627,285.640 352.390,286.164 352.390 C 286.688 352.390,287.220 352.221,287.348 352.015 C 287.475 351.809,288.033 351.639,288.588 351.638 C 289.143 351.637,290.080 351.383,290.671 351.075 C 291.261 350.767,292.189 350.510,292.733 350.504 C 293.276 350.497,294.048 350.244,294.448 349.941 C 294.849 349.638,295.692 349.385,296.323 349.379 C 296.954 349.372,297.797 349.119,298.197 348.817 C 298.597 348.514,299.281 348.266,299.716 348.266 C 300.150 348.266,300.666 348.116,300.862 347.933 C 301.058 347.750,302.362 347.219,303.760 346.754 C 305.158 346.289,306.392 345.764,306.500 345.587 C 306.609 345.411,307.068 345.262,307.520 345.255 C 307.972 345.249,308.669 344.996,309.069 344.693 C 309.469 344.390,310.165 344.142,310.616 344.142 C 311.067 344.142,311.646 343.889,311.903 343.580 C 312.159 343.271,312.628 343.018,312.945 343.018 C 313.582 343.018,321.275 339.377,325.068 337.280 C 331.233 333.872,335.776 331.093,337.823 329.476 C 338.575 328.883,339.376 328.397,339.604 328.397 C 339.832 328.397,340.019 328.262,340.019 328.097 C 340.019 327.932,340.809 327.300,341.775 326.691 C 342.741 326.083,343.795 325.323,344.118 325.003 C 344.441 324.682,345.463 323.839,346.391 323.128 C 349.241 320.944,349.733 320.495,354.983 315.265 C 360.127 310.140,361.258 308.888,363.357 305.998 C 363.993 305.122,364.653 304.405,364.825 304.405 C 364.996 304.405,365.136 304.152,365.136 303.843 C 365.136 303.533,365.293 303.280,365.486 303.280 C 365.678 303.280,365.929 302.985,366.044 302.624 C 366.158 302.263,366.634 301.546,367.100 301.031 C 368.637 299.332,371.357 294.986,373.320 291.097 C 373.632 290.478,373.984 289.888,374.104 289.784 C 374.319 289.598,375.839 286.574,377.671 282.685 C 378.200 281.564,378.632 280.446,378.632 280.201 C 378.632 279.955,378.885 279.544,379.194 279.288 C 379.503 279.031,379.756 278.452,379.756 278.001 C 379.756 277.551,380.004 276.854,380.307 276.454 C 380.609 276.054,380.862 275.437,380.869 275.083 C 380.880 274.496,381.600 272.587,382.426 270.952 C 382.607 270.594,382.755 269.825,382.755 269.243 C 382.755 268.661,383.003 267.857,383.306 267.457 C 383.609 267.057,383.862 266.213,383.868 265.582 C 383.875 264.952,384.128 264.108,384.430 263.708 C 384.733 263.308,384.986 262.296,384.993 261.459 C 384.999 260.622,385.252 259.610,385.555 259.209 C 385.858 258.809,386.117 257.638,386.131 256.607 C 386.145 255.576,386.397 254.311,386.692 253.796 C 386.992 253.270,387.233 251.838,387.241 250.538 C 387.248 249.261,387.398 248.128,387.574 248.019 C 387.751 247.910,387.984 246.069,388.094 243.929 C 388.203 241.789,388.480 239.686,388.710 239.256 C 389.260 238.228,389.302 178.135,388.758 170.947 C 388.547 168.163,388.190 160.234,387.964 153.327 C 387.200 129.945,387.013 126.155,386.570 125.093 C 386.328 124.512,386.123 122.910,386.116 121.531 C 386.109 120.153,385.862 117.929,385.567 116.589 C 385.272 115.248,385.025 112.833,385.018 111.222 C 385.011 109.610,384.816 107.939,384.585 107.507 C 384.354 107.075,384.088 105.273,383.995 103.502 C 383.902 101.730,383.675 99.944,383.490 99.531 C 383.184 98.847,382.846 96.895,382.023 91.069 C 381.861 89.920,381.538 88.624,381.305 88.188 C 381.072 87.753,380.875 86.669,380.868 85.779 C 380.860 84.889,380.613 83.739,380.319 83.224 C 380.024 82.709,379.772 81.528,379.758 80.600 C 379.744 79.672,379.485 78.585,379.182 78.185 C 378.879 77.785,378.632 77.057,378.632 76.569 C 378.632 75.611,377.673 72.202,377.105 71.139 C 376.914 70.781,376.757 70.012,376.757 69.430 C 376.757 68.848,376.510 68.045,376.207 67.644 C 375.904 67.244,375.651 66.356,375.645 65.671 C 375.638 64.987,375.380 64.173,375.070 63.864 C 374.761 63.555,374.508 62.828,374.508 62.250 C 374.508 61.671,374.255 60.988,373.946 60.731 C 373.636 60.474,373.383 59.945,373.383 59.555 C 373.383 59.165,373.223 58.554,373.027 58.195 C 372.830 57.837,372.394 56.870,372.056 56.045 C 371.718 55.220,371.204 54.098,370.913 53.550 C 370.622 53.003,370.384 52.222,370.384 51.816 C 370.384 51.409,370.131 50.866,369.822 50.609 C 369.513 50.353,369.260 49.846,369.260 49.485 C 369.260 49.123,369.007 48.617,368.697 48.360 C 368.388 48.103,368.135 47.657,368.135 47.369 C 368.135 46.904,367.401 45.514,365.978 43.285 C 365.720 42.880,365.351 42.186,365.158 41.742 C 364.965 41.298,364.628 40.824,364.409 40.689 C 364.190 40.554,364.011 40.116,364.011 39.715 C 364.011 39.315,363.882 38.988,363.724 38.988 C 363.566 38.988,362.863 38.102,362.161 37.020 C 358.372 31.176,350.877 23.267,346.673 20.674 C 345.900 20.198,345.267 19.653,345.267 19.463 C 345.267 19.274,345.101 19.119,344.899 19.119 C 344.696 19.119,343.470 18.486,342.175 17.713 C 338.036 15.244,334.340 13.673,329.709 12.417 C 325.654 11.316,322.912 10.856,318.276 10.497 C 315.492 10.282,312.793 10.042,312.277 9.965 C 311.762 9.887,310.497 9.958,309.466 10.122 M132.041 151.333 C 133.427 151.510,134.768 151.863,135.022 152.116 C 135.275 152.370,136.019 152.577,136.674 152.577 C 137.329 152.577,138.075 152.830,138.332 153.140 C 138.588 153.449,139.091 153.702,139.450 153.702 C 140.095 153.702,144.344 155.810,144.705 156.309 C 144.808 156.452,145.145 156.681,145.455 156.820 C 147.620 157.788,152.748 162.451,155.219 165.698 C 155.925 166.626,156.716 167.608,156.977 167.881 C 157.237 168.153,157.451 168.617,157.451 168.912 C 157.451 169.206,157.587 169.447,157.754 169.447 C 157.920 169.447,158.348 170.164,158.705 171.040 C 159.061 171.917,159.600 173.111,159.901 173.695 C 160.203 174.279,160.455 175.122,160.462 175.569 C 160.468 176.016,160.721 176.710,161.024 177.110 C 161.327 177.510,161.575 178.406,161.575 179.101 C 161.575 179.797,161.849 181.203,162.184 182.227 C 162.902 184.425,162.782 192.382,162.019 193.145 C 161.774 193.390,161.575 194.367,161.575 195.317 C 161.575 196.268,161.327 197.373,161.024 197.773 C 160.721 198.173,160.463 198.922,160.450 199.438 C 160.437 199.953,160.178 200.702,159.876 201.103 C 159.573 201.503,159.325 202.135,159.325 202.508 C 159.325 202.881,159.168 203.187,158.976 203.187 C 158.783 203.187,158.511 203.566,158.370 204.030 C 158.229 204.494,157.711 205.410,157.220 206.067 C 156.728 206.723,156.326 207.447,156.326 207.675 C 156.326 208.204,147.493 217.057,146.966 217.057 C 146.750 217.057,145.874 217.563,145.020 218.182 C 144.166 218.800,143.240 219.306,142.962 219.306 C 142.683 219.306,142.455 219.475,142.455 219.681 C 142.455 219.888,142.150 220.056,141.777 220.056 C 141.404 220.056,140.772 220.304,140.372 220.607 C 139.971 220.909,139.201 221.162,138.659 221.169 C 138.117 221.176,137.464 221.434,137.207 221.743 C 136.950 222.052,136.247 222.306,135.643 222.306 C 135.040 222.306,134.090 222.535,133.533 222.816 C 130.532 224.330,117.617 224.335,115.196 222.824 C 114.739 222.539,113.867 222.306,113.258 222.306 C 112.649 222.306,111.589 222.023,110.902 221.678 C 110.215 221.333,109.205 220.827,108.658 220.553 C 108.111 220.280,107.394 220.056,107.065 220.056 C 106.736 220.056,106.467 219.888,106.467 219.681 C 106.467 219.475,106.150 219.306,105.763 219.306 C 105.376 219.306,104.849 219.053,104.592 218.744 C 104.336 218.435,103.970 218.182,103.781 218.182 C 102.037 218.182,91.846 208.283,91.846 206.589 C 91.846 206.367,91.681 206.186,91.479 206.186 C 91.276 206.186,91.005 205.764,90.876 205.248 C 90.746 204.733,90.503 204.311,90.336 204.311 C 90.168 204.311,89.920 203.805,89.784 203.187 C 89.649 202.568,89.382 202.062,89.192 202.062 C 89.003 202.062,88.847 201.792,88.847 201.462 C 88.847 201.133,88.620 200.331,88.343 199.682 C 85.282 192.509,85.262 182.359,88.295 174.883 C 89.577 171.723,90.144 170.572,90.419 170.572 C 90.585 170.572,90.722 170.329,90.722 170.033 C 90.722 168.667,98.792 158.950,99.927 158.950 C 100.036 158.950,101.004 158.294,102.078 157.491 C 103.152 156.689,104.821 155.677,105.788 155.243 C 106.755 154.809,107.650 154.285,107.778 154.078 C 107.906 153.871,108.380 153.697,108.832 153.690 C 109.284 153.683,109.981 153.430,110.381 153.128 C 110.781 152.825,111.540 152.572,112.068 152.565 C 112.596 152.559,113.355 152.306,113.755 152.003 C 114.189 151.675,115.323 151.450,116.566 151.447 C 117.713 151.444,118.903 151.273,119.213 151.067 C 119.841 150.648,128.021 150.818,132.041 151.333 M283.869 151.333 C 285.254 151.510,286.596 151.863,286.849 152.116 C 287.103 152.370,287.846 152.577,288.501 152.577 C 289.157 152.577,289.903 152.830,290.159 153.140 C 290.416 153.449,290.919 153.702,291.277 153.702 C 291.922 153.702,296.172 155.810,296.532 156.309 C 296.635 156.452,296.973 156.681,297.282 156.820 C 299.514 157.818,304.595 162.367,306.780 165.323 C 307.618 166.457,308.523 167.608,308.791 167.881 C 309.059 168.153,309.278 168.617,309.278 168.912 C 309.278 169.206,309.415 169.447,309.581 169.447 C 309.901 169.447,311.153 172.049,311.153 172.714 C 311.153 172.928,311.406 173.314,311.715 173.571 C 312.024 173.827,312.277 174.587,312.277 175.258 C 312.277 175.929,312.530 176.688,312.840 176.945 C 313.149 177.201,313.405 178.023,313.408 178.771 C 313.411 179.519,313.656 180.806,313.954 181.631 C 314.683 183.655,314.683 190.853,313.954 192.877 C 313.656 193.702,313.411 194.977,313.408 195.711 C 313.405 196.445,313.154 197.373,312.852 197.773 C 312.549 198.173,312.291 198.922,312.277 199.438 C 312.264 199.953,312.006 200.702,311.703 201.103 C 311.400 201.503,311.153 202.135,311.153 202.508 C 311.153 202.881,310.984 203.187,310.778 203.187 C 310.572 203.187,310.403 203.414,310.403 203.693 C 310.403 203.971,309.897 204.897,309.278 205.751 C 308.660 206.605,308.154 207.488,308.154 207.712 C 308.154 208.246,299.343 217.057,298.809 217.057 C 298.584 217.057,297.702 217.563,296.848 218.182 C 295.994 218.800,295.067 219.306,294.789 219.306 C 294.511 219.306,294.283 219.475,294.283 219.681 C 294.283 219.888,293.978 220.056,293.605 220.056 C 293.232 220.056,292.599 220.304,292.199 220.607 C 291.799 220.909,291.028 221.162,290.486 221.169 C 289.945 221.176,289.291 221.434,289.035 221.743 C 288.778 222.052,288.074 222.306,287.471 222.306 C 286.867 222.306,285.918 222.535,285.361 222.816 C 282.359 224.330,269.444 224.335,267.023 222.824 C 266.567 222.539,265.597 222.306,264.868 222.306 C 264.139 222.306,263.543 222.150,263.543 221.960 C 263.543 221.771,262.994 221.496,262.324 221.350 C 261.654 221.204,260.773 220.854,260.366 220.571 C 259.960 220.288,259.327 220.056,258.961 220.056 C 258.594 220.056,258.294 219.888,258.294 219.681 C 258.294 219.475,257.978 219.306,257.590 219.306 C 257.203 219.306,256.677 219.053,256.420 218.744 C 256.163 218.435,255.792 218.182,255.596 218.182 C 254.325 218.182,244.799 209.388,244.799 208.214 C 244.799 207.923,244.639 207.685,244.444 207.685 C 244.094 207.685,243.170 206.243,242.702 204.967 C 242.570 204.606,242.313 204.311,242.131 204.311 C 241.948 204.311,241.799 204.133,241.799 203.916 C 241.799 203.512,240.564 200.522,239.912 199.349 C 239.713 198.991,239.550 198.347,239.550 197.919 C 239.550 197.490,239.349 196.771,239.103 196.320 C 237.105 192.665,237.698 180.484,240.146 174.883 C 240.416 174.264,240.931 173.041,241.290 172.165 C 241.650 171.289,242.080 170.572,242.246 170.572 C 242.413 170.572,242.549 170.329,242.549 170.033 C 242.549 168.672,250.643 158.950,251.776 158.950 C 251.874 158.950,252.832 158.301,253.905 157.508 C 254.979 156.715,257.038 155.514,258.482 154.839 C 259.925 154.164,261.554 153.379,262.101 153.094 C 262.648 152.810,263.492 152.572,263.975 152.565 C 264.459 152.559,265.182 152.306,265.582 152.003 C 266.017 151.675,267.150 151.450,268.394 151.447 C 269.540 151.444,270.731 151.273,271.040 151.067 C 271.669 150.648,279.848 150.818,283.869 151.333 " stroke="none" fill="#fff" fill-rule="evenodd"></path></g></svg>
